<mxfile host="Electron" modified="2023-10-08T08:37:36.890Z" agent="Mozilla/5.0 (Windows NT 10.0; Win64; x64) AppleWebKit/537.36 (KHTML, like Gecko) draw.io/22.0.2 Chrome/114.0.5735.289 Electron/25.8.4 Safari/537.36" etag="ZVwhMNzUcBp0_P9CC6iu" version="22.0.2" type="device">
  <diagram name="Page-1" id="-AzncE2qijmF--vIhgvL">
    <mxGraphModel dx="1276" dy="614" grid="1" gridSize="10" guides="1" tooltips="1" connect="1" arrows="1" fold="1" page="1" pageScale="1" pageWidth="827" pageHeight="1169" math="0" shadow="0">
      <root>
        <mxCell id="0" />
        <mxCell id="1" parent="0" />
        <mxCell id="1yAhXwaMOXSBxchWvAzl-1" value="Visual Studio Code" style="rounded=0;whiteSpace=wrap;html=1;" parent="1" vertex="1">
          <mxGeometry x="250" y="260" width="120" height="60" as="geometry" />
        </mxCell>
        <mxCell id="1yAhXwaMOXSBxchWvAzl-2" value="Vagrant" style="ellipse;whiteSpace=wrap;html=1;" parent="1" vertex="1">
          <mxGeometry x="200" y="440" width="120" height="80" as="geometry" />
        </mxCell>
        <mxCell id="1yAhXwaMOXSBxchWvAzl-3" value="Putty" style="ellipse;whiteSpace=wrap;html=1;" parent="1" vertex="1">
          <mxGeometry x="40" y="440" width="120" height="80" as="geometry" />
        </mxCell>
        <mxCell id="1yAhXwaMOXSBxchWvAzl-4" value="GIT" style="ellipse;whiteSpace=wrap;html=1;" parent="1" vertex="1">
          <mxGeometry x="40" y="720" width="120" height="80" as="geometry" />
        </mxCell>
        <mxCell id="1yAhXwaMOXSBxchWvAzl-5" value="Oracle JDK" style="whiteSpace=wrap;html=1;aspect=fixed;" parent="1" vertex="1">
          <mxGeometry x="334" y="570" width="80" height="80" as="geometry" />
        </mxCell>
        <mxCell id="1yAhXwaMOXSBxchWvAzl-6" value="Node Js" style="whiteSpace=wrap;html=1;aspect=fixed;" parent="1" vertex="1">
          <mxGeometry x="70" y="570" width="80" height="80" as="geometry" />
        </mxCell>
        <mxCell id="1yAhXwaMOXSBxchWvAzl-7" value="Insomnia" style="whiteSpace=wrap;html=1;aspect=fixed;" parent="1" vertex="1">
          <mxGeometry x="620" y="570" width="80" height="80" as="geometry" />
        </mxCell>
        <mxCell id="nsUg3FT4RO-Wi1xsxVVL-1" value="Eclipse" style="rounded=0;whiteSpace=wrap;html=1;" parent="1" vertex="1">
          <mxGeometry x="390" y="260" width="120" height="60" as="geometry" />
        </mxCell>
        <mxCell id="nsUg3FT4RO-Wi1xsxVVL-2" value="Flowgorithm" style="rounded=0;whiteSpace=wrap;html=1;" parent="1" vertex="1">
          <mxGeometry x="320" y="140" width="120" height="60" as="geometry" />
        </mxCell>
        <mxCell id="nsUg3FT4RO-Wi1xsxVVL-6" value="" style="edgeStyle=none;orthogonalLoop=1;jettySize=auto;html=1;rounded=0;exitX=0;exitY=1;exitDx=0;exitDy=0;" parent="1" source="nsUg3FT4RO-Wi1xsxVVL-2" target="1yAhXwaMOXSBxchWvAzl-1" edge="1">
          <mxGeometry width="100" relative="1" as="geometry">
            <mxPoint x="260" y="100" as="sourcePoint" />
            <mxPoint x="360" y="100" as="targetPoint" />
            <Array as="points" />
          </mxGeometry>
        </mxCell>
        <mxCell id="nsUg3FT4RO-Wi1xsxVVL-8" value="" style="edgeStyle=none;orthogonalLoop=1;jettySize=auto;html=1;rounded=0;entryX=0.5;entryY=0;entryDx=0;entryDy=0;exitX=1;exitY=1;exitDx=0;exitDy=0;" parent="1" source="nsUg3FT4RO-Wi1xsxVVL-2" target="nsUg3FT4RO-Wi1xsxVVL-1" edge="1">
          <mxGeometry width="100" relative="1" as="geometry">
            <mxPoint x="400" y="110" as="sourcePoint" />
            <mxPoint x="500" y="110" as="targetPoint" />
            <Array as="points" />
          </mxGeometry>
        </mxCell>
        <mxCell id="nsUg3FT4RO-Wi1xsxVVL-9" value="Draw IO" style="rounded=0;whiteSpace=wrap;html=1;" parent="1" vertex="1">
          <mxGeometry x="320" y="80" width="120" height="60" as="geometry" />
        </mxCell>
        <mxCell id="EXebG7pKO8kJnmV8BvKe-1" value="Star Uml" style="rounded=0;whiteSpace=wrap;html=1;" vertex="1" parent="1">
          <mxGeometry x="320" y="20" width="120" height="60" as="geometry" />
        </mxCell>
        <mxCell id="EXebG7pKO8kJnmV8BvKe-2" value="DBeaver" style="ellipse;whiteSpace=wrap;html=1;" vertex="1" parent="1">
          <mxGeometry x="320" y="360" width="120" height="80" as="geometry" />
        </mxCell>
        <mxCell id="EXebG7pKO8kJnmV8BvKe-3" value="Virtual Box" style="ellipse;whiteSpace=wrap;html=1;" vertex="1" parent="1">
          <mxGeometry x="620" y="440" width="120" height="80" as="geometry" />
        </mxCell>
        <mxCell id="EXebG7pKO8kJnmV8BvKe-4" value="Filezilla" style="ellipse;whiteSpace=wrap;html=1;" vertex="1" parent="1">
          <mxGeometry x="460" y="440" width="120" height="80" as="geometry" />
        </mxCell>
        <mxCell id="EXebG7pKO8kJnmV8BvKe-5" value="Discord" style="ellipse;whiteSpace=wrap;html=1;" vertex="1" parent="1">
          <mxGeometry x="630" y="720" width="120" height="80" as="geometry" />
        </mxCell>
        <mxCell id="EXebG7pKO8kJnmV8BvKe-6" value="Chrome" style="ellipse;whiteSpace=wrap;html=1;" vertex="1" parent="1">
          <mxGeometry x="334" y="720" width="120" height="80" as="geometry" />
        </mxCell>
      </root>
    </mxGraphModel>
  </diagram>
</mxfile>
